HIERARCHY
ROOT Hips
{
	OFFSET 0.000000 0.000000 0.000000
	CHANNELS 6 Xposition Yposition Zposition Yrotation Xrotation Zrotation
	JOINT Chest
	{
		OFFSET 0.000000 -0.009281 11.569106
		CHANNELS 3 Yrotation Xrotation Zrotation
		JOINT Chest2
		{
			OFFSET -0.000000 0.016865 9.269641
			CHANNELS 3 Yrotation Xrotation Zrotation
			JOINT Chest3
			{
				OFFSET -0.000000 0.000001 8.374491
				CHANNELS 3 Yrotation Xrotation Zrotation
				JOINT Chest4
				{
					OFFSET -0.000000 0.000001 8.374493
					CHANNELS 3 Yrotation Xrotation Zrotation
					JOINT Neck
					{
						OFFSET -0.000000 0.000002 12.152554
						CHANNELS 3 Yrotation Xrotation Zrotation
						JOINT Head
						{
							OFFSET -0.000000 0.040101 7.802319
							CHANNELS 3 Yrotation Xrotation Zrotation
							End Site
							{
								OFFSET -0.000000 0.020947 14.853096
							}
						}
					}
					JOINT RightCollar
					{
						OFFSET 2.894404 0.000001 6.791374
						CHANNELS 3 Yrotation Xrotation Zrotation
						JOINT RightShoulder
						{
							OFFSET 13.574684 0.000001 0.000000
							CHANNELS 3 Yrotation Xrotation Zrotation
							JOINT RightElbow
							{
								OFFSET 23.923903 0.000002 0.000000
								CHANNELS 3 Yrotation Xrotation Zrotation
								JOINT RightWrist
								{
									OFFSET 19.846718 0.012767 0.000000
									CHANNELS 3 Yrotation Xrotation Zrotation
									End Site
									{
										OFFSET 14.973145 0.000001 0.000000
									}
								}
							}
						}
					}
					JOINT LeftCollar
					{
						OFFSET -2.894404 0.000001 6.791374
						CHANNELS 3 Yrotation Xrotation Zrotation
						JOINT LeftShoulder
						{
							OFFSET -13.574684 -0.000001 0.000000
							CHANNELS 3 Yrotation Xrotation Zrotation
							JOINT LeftElbow
							{
								OFFSET -23.923903 -0.000002 0.000000
								CHANNELS 3 Yrotation Xrotation Zrotation
								JOINT LeftWrist
								{
									OFFSET -19.846718 0.012763 0.000000
									CHANNELS 3 Yrotation Xrotation Zrotation
									End Site
									{
										OFFSET -14.973145 -0.000001 0.000000
									}
								}
							}
						}
					}
				}
			}
		}
	}
	JOINT RightHip
	{
		OFFSET 9.469263 0.004643 0.045487
		CHANNELS 3 Yrotation Xrotation Zrotation
		JOINT RightKnee
		{
			OFFSET 0.000000 0.002661 -40.478676
			CHANNELS 3 Yrotation Xrotation Zrotation
			JOINT RightAnkle
			{
				OFFSET 0.000000 0.049106 -35.224068
				CHANNELS 3 Yrotation Xrotation Zrotation
				JOINT RightToe
				{
					OFFSET -0.000001 12.539529 -6.151390
					CHANNELS 3 Yrotation Xrotation Zrotation
					End Site
					{
						OFFSET -0.000001 5.044994 -1.291870
					}
				}
			}
		}
	}
	JOINT LeftHip
	{
		OFFSET -9.469263 0.004641 0.045487
		CHANNELS 3 Yrotation Xrotation Zrotation
		JOINT LeftKnee
		{
			OFFSET 0.000000 0.002661 -40.478676
			CHANNELS 3 Yrotation Xrotation Zrotation
			JOINT LeftAnkle
			{
				OFFSET 0.000000 0.049106 -35.224068
				CHANNELS 3 Yrotation Xrotation Zrotation
				JOINT LeftToe
				{
					OFFSET -0.000001 12.539529 -6.151390
					CHANNELS 3 Yrotation Xrotation Zrotation
					End Site
					{
						OFFSET -0.000001 5.044994 -1.291870
					}
				}
			}
		}
	}
}
MOTION
Frames: 7
Frame Time: 0.016667
11.481067 4.159335 82.976753 -6.642285 -3.624577 -111.316012 -0.033316 -3.626198 1.901912 0.001916 -1.610653 0.845295 0.001916 -1.610653 0.845293 0.003664 -1.207990 0.633936 2.117979 -17.573303 -3.079299 2.859129 3.566886 -4.960515 4.134306 0.462044 -0.360009 54.857552 -19.061868 48.378653 -10.450628 -38.759876 31.141448 -29.152122 8.326427 47.643783 -12.183551 1.955102 -9.567442 -84.931497 -2.595434 -20.806635 -51.503916 14.511645 -31.479946 46.859114 52.986330 -8.814822 0.219821 -11.466588 -1.357910 0.652132 -1.807509 -4.330340 0.445752 5.417508 3.474886 -0.007444 -0.010019 -0.005781 0.065842 -12.222990 0.110492 0.869983 -0.316084 4.060775 -0.234766 5.056198 -1.806532 0.005320 -0.016610 0.003842 
11.464026 4.167719 82.978096 -6.651434 -3.624109 -111.309236 -0.040936 -3.628153 1.906723 -0.002082 -1.611599 0.847083 -0.002082 -1.611599 0.847086 0.000673 -1.208706 0.635267 2.129545 -17.563821 -3.081661 2.879442 3.584735 -4.960919 4.130908 0.457544 -0.370094 54.867798 -19.059071 48.391416 -10.462897 -38.758742 31.153159 -29.156630 8.341158 47.659837 -12.182299 1.958677 -9.572039 -84.943784 -2.579591 -20.791980 -51.482288 14.503686 -31.446690 46.856409 52.991780 -8.821491 0.216079 -11.451739 -1.340074 0.655744 -1.827207 -4.345291 0.440863 5.415142 3.465451 -0.005173 -0.010259 -0.005348 0.059544 -12.212634 0.119058 0.872446 -0.324610 4.059618 -0.235435 5.046747 -1.815210 0.005991 -0.015930 0.004287 
11.448300 4.173328 82.979324 -6.663925 -3.626558 -111.298588 -0.047445 -3.629726 1.910066 -0.005270 -1.611915 0.848513 -0.005269 -1.611915 0.848519 -0.001713 -1.208946 0.636329 2.143803 -17.562424 -3.086758 2.903979 3.587617 -4.965464 4.129320 0.442609 -0.378500 54.876936 -19.037219 48.415721 -10.470204 -38.774680 31.166389 -29.137006 8.331217 47.662481 -12.186104 1.952844 -9.572692 -84.951516 -2.560001 -20.779946 -51.468412 14.504912 -31.416548 46.819526 52.988235 -8.825458 0.213316 -11.448369 -1.345266 0.658775 -1.837878 -4.349974 0.439268 5.409957 3.481381 -0.004254 -0.009982 -0.004163 0.059517 -12.206591 0.135781 0.876363 -0.333748 4.048093 -0.242568 5.039151 -1.836135 0.007214 -0.016501 0.004033 
11.432685 4.176972 82.980644 -6.676457 -3.630423 -111.287264 -0.052964 -3.629820 1.910738 -0.007780 -1.611933 0.849075 -0.007780 -1.611934 0.849073 -0.003595 -1.208964 0.636743 2.155972 -17.566572 -3.090306 2.925318 3.580184 -4.967867 4.126864 0.438345 -0.391247 54.856364 -19.066992 48.456374 -10.487125 -38.779598 31.151991 -29.124821 8.320968 47.676797 -12.187975 1.946623 -9.573629 -84.962718 -2.529650 -20.766809 -51.462320 14.500533 -31.387581 46.776089 52.984550 -8.831017 0.217949 -11.448527 -1.354916 0.656745 -1.843112 -4.349428 0.437062 5.401948 3.485321 -0.003976 -0.009378 -0.003928 0.059725 -12.203515 0.158973 0.879053 -0.339511 4.025042 -0.247306 5.029744 -1.837664 0.008657 -0.016010 0.004104 
11.417775 4.180029 82.981567 -6.688250 -3.634846 -111.278009 -0.056634 -3.628071 1.910140 -0.009098 -1.611017 0.849020 -0.009098 -1.611017 0.849018 -0.004585 -1.208279 0.636700 2.164341 -17.574901 -3.092944 2.940051 3.564889 -4.969880 4.121544 0.440691 -0.397288 54.804512 -19.138007 48.490976 -10.525807 -38.766709 31.130110 -29.133714 8.320869 47.721173 -12.191833 1.933085 -9.570417 -84.975367 -2.502933 -20.756781 -51.447765 14.483151 -31.367750 46.762624 52.972341 -8.823085 0.219547 -11.449304 -1.359829 0.657569 -1.846995 -4.349885 0.436262 5.394487 3.490652 -0.004442 -0.009680 -0.003732 0.063028 -12.200949 0.196889 0.879561 -0.344512 3.995198 -0.252689 5.021596 -1.840712 0.009441 -0.016367 0.003467 
11.402396 4.185429 82.982338 -6.700470 -3.641142 -111.271288 -0.061063 -3.630482 1.915406 -0.010503 -1.612214 0.851232 -0.010503 -1.612214 0.851231 -0.005631 -1.209177 0.638357 2.174544 -17.582932 -3.097767 2.957420 3.550184 -4.975313 4.117040 0.441171 -0.401924 54.761646 -19.156763 48.501238 -10.575267 -38.785359 31.133935 -29.150370 8.339615 47.783484 -12.192529 1.931371 -9.574773 -84.979383 -2.489609 -20.748878 -51.443499 14.458018 -31.350824 46.797007 52.980739 -8.809091 0.218639 -11.446531 -1.355116 0.663866 -1.856980 -4.356576 0.434637 5.387868 3.494029 -0.005712 -0.009361 -0.004866 0.066241 -12.196851 0.240729 0.880411 -0.353287 3.966014 -0.257336 5.016132 -1.864752 0.009761 -0.017867 0.003643 
11.385273 4.191882 82.983658 -6.712759 -3.646720 -111.267258 -0.064888 -3.634204 1.924113 -0.012021 -1.614093 0.855090 -0.012021 -1.614094 0.855091 -0.006756 -1.210589 0.641246 2.186698 -17.590689 -3.106134 2.977172 3.536022 -4.986612 4.114114 0.435700 -0.404605 54.726935 -19.164556 48.528088 -10.596702 -38.796076 31.106181 -29.166253 8.362617 47.831528 -12.196860 1.931690 -9.578620 -84.970169 -2.484504 -20.749799 -51.446511 14.442353 -31.341897 46.817511 52.979896 -8.796379 0.216774 -11.441834 -1.348317 0.669065 -1.866826 -4.362964 0.434855 5.378965 3.494664 -0.007682 -0.008858 -0.004840 0.065078 -12.190738 0.272159 0.883936 -0.364410 3.946030 -0.260362 5.010560 -1.868968 0.009384 -0.018658 0.003340 
